<?xml version="1.0" encoding="utf-8"?>
<!-- Generator: Adobe Illustrator 24.0.1, SVG Export Plug-In . SVG Version: 6.00 Build 0)  -->
<svg version="1.1" id="Layer_1" xmlns="http://www.w3.org/2000/svg" xmlns:xlink="http://www.w3.org/1999/xlink" x="0px" y="0px"
	 viewBox="0 0 23 21.8" style="enable-background:new 0 0 23 21.8;" xml:space="preserve">
<style type="text/css">
	.st0{fill:#8C8C8C;}
</style>
<g transform="translate(0 -12.5)">
	<g transform="translate(0 12.5)">
		<g transform="translate(0 0)">
			<path class="st0" d="M21.2,0H1.8C0.8,0,0,0.8,0,1.8v14.7c0,1,0.8,1.8,1.8,1.8h7.1V21H6.4C6.2,21,6,21.2,6,21.4s0.2,0.4,0.4,0.4
				h10.3c0.2,0,0.4-0.2,0.4-0.4S16.8,21,16.6,21l0,0h-2.6v-2.7h7.1c1,0,1.8-0.8,1.8-1.8V1.8C23,0.8,22.2,0,21.2,0z M13.3,21H9.7
				v-2.7h3.7L13.3,21z M22.3,16.5c0,0.6-0.5,1.1-1.1,1.1l0,0H1.8c-0.6,0-1.1-0.5-1.1-1.1l0,0v-1.1h21.5V16.5z M22.3,14.7H0.7V1.8
				c0-0.6,0.5-1.1,1.1-1.1c0,0,0,0,0,0h19.3c0.6,0,1.1,0.5,1.1,1.1v0L22.3,14.7z"/>
			<path class="st0" d="M21.2,1.5H1.8c-0.2,0-0.4,0.2-0.4,0.4l0,0v11.7c0,0.2,0.2,0.4,0.4,0.4c0,0,0,0,0,0h15.9
				c0.2,0,0.4-0.2,0.4-0.4s-0.2-0.4-0.4-0.4l0,0H2.2v-11h18.6v11h-1.6c-0.2,0-0.4,0.2-0.4,0.4s0.2,0.4,0.4,0.4h2
				c0.2,0,0.4-0.2,0.4-0.4l0,0V1.8C21.5,1.6,21.4,1.5,21.2,1.5L21.2,1.5z"/>
		</g>
	</g>
</g>
</svg>
